<?xml version="1.0" encoding="UTF-8" standalone="no"?>
<!DOCTYPE svg PUBLIC "-//W3C//DTD SVG 1.1//EN" "http://www.w3.org/Graphics/SVG/1.1/DTD/svg11.dtd">
<svg width="100%" height="100%" viewBox="0 0 770 166" version="1.1" xmlns="http://www.w3.org/2000/svg" xmlns:xlink="http://www.w3.org/1999/xlink" xml:space="preserve" xmlns:serif="http://www.serif.com/" style="fill-rule:evenodd;clip-rule:evenodd;stroke-linejoin:round;stroke-miterlimit:1.41421;">
    <g transform="matrix(1,0,0,1,-116.821,-249.087)">
        <g transform="matrix(4.16667,0,0,4.16667,0,0)">
            <path d="M40.795,81.847C35.776,81.847 32.133,78.001 32.133,72.703C32.133,67.491 35.861,63.561 40.805,63.561C45.732,63.561 49.447,67.487 49.447,72.694C49.447,77.998 45.808,81.847 40.795,81.847ZM40.846,59.781C33.543,59.781 28.037,65.332 28.037,72.694C28.037,80.066 33.521,85.625 40.795,85.625C48.068,85.625 53.553,80.053 53.553,72.663C53.553,65.319 48.09,59.781 40.846,59.781Z" style="fill:white;fill-rule:nonzero;"/>
        </g>
        <g transform="matrix(4.16667,0,0,4.16667,0,0)">
            <path d="M78.825,60.12L73.607,60.12L64.388,69.738L64.388,60.12L60.333,60.12L60.333,85.288L64.388,85.288L64.388,74.228L74.551,85.288L79.862,85.288L67.551,71.884L78.825,60.12Z" style="fill:white;fill-rule:nonzero;"/>
        </g>
        <g transform="matrix(4.16667,0,0,4.16667,0,0)">
            <path d="M99.176,76.197C99.176,79.623 96.902,81.837 93.383,81.837C89.863,81.837 87.588,79.623 87.588,76.197L87.588,60.12L83.524,60.12L83.524,76.187C83.524,81.832 87.461,85.625 93.321,85.625C99.218,85.625 103.181,81.829 103.181,76.176L103.181,60.12L99.176,60.12L99.176,76.197Z" style="fill:white;fill-rule:nonzero;"/>
        </g>
        <g transform="matrix(4.16667,0,0,4.16667,0,0)">
            <path d="M127.119,70.732L115.42,70.732L115.42,60.12L111.365,60.12L111.365,85.288L115.42,85.288L115.42,74.46L127.119,74.46L127.119,85.288L131.175,85.288L131.175,60.12L127.119,60.12L127.119,70.732Z" style="fill:white;fill-rule:nonzero;"/>
        </g>
        <g transform="matrix(4.16667,0,0,4.16667,0,0)">
            <path d="M151.654,74.994L144.688,74.994L148.147,65.653L151.654,74.994ZM146.176,60.12L136.674,85.288L140.894,85.288L143.331,78.68L153.017,78.68L155.485,85.288L159.849,85.288L150.229,60.12L146.176,60.12Z" style="fill:white;fill-rule:nonzero;"/>
        </g>
        <g transform="matrix(4.16667,0,0,4.16667,0,0)">
            <path d="M169.309,63.878L173.74,63.878C175.624,63.878 178.786,64.411 178.786,67.981C178.786,71.552 175.624,72.085 173.74,72.085L169.309,72.085L169.309,63.878ZM182.852,67.95C182.852,63.267 179.425,60.12 174.324,60.12L165.285,60.12L165.285,85.288L169.309,85.288L169.309,75.854L173.447,75.854L179.019,85.288L183.782,85.288L177.736,75.306C180.915,74.18 182.852,71.438 182.852,67.95Z" style="fill:white;fill-rule:nonzero;"/>
        </g>
        <g transform="matrix(4.16667,0,0,4.16667,0,0)">
            <path d="M201.477,74.994L194.511,74.994L197.969,65.653L201.477,74.994ZM200.053,60.12L195.998,60.12L186.498,85.288L190.717,85.288L193.155,78.68L202.841,78.68L205.309,85.288L209.673,85.288L200.053,60.12Z" style="fill:white;fill-rule:nonzero;"/>
        </g>
        <g transform="matrix(4.16667,0,0,4.16667,0,0)">
            <path d="M40.795,81.847C35.776,81.847 32.133,78.001 32.133,72.703C32.133,67.491 35.861,63.561 40.805,63.561C45.732,63.561 49.447,67.487 49.447,72.694C49.447,77.998 45.808,81.847 40.795,81.847ZM40.846,59.781C33.543,59.781 28.037,65.332 28.037,72.694C28.037,80.066 33.521,85.625 40.795,85.625C48.068,85.625 53.553,80.053 53.553,72.663C53.553,65.319 48.09,59.781 40.846,59.781Z" style="fill:white;fill-rule:nonzero;"/>
        </g>
        <g transform="matrix(4.16667,0,0,4.16667,0,0)">
            <path d="M78.825,60.12L73.607,60.12L64.388,69.738L64.388,60.12L60.333,60.12L60.333,85.288L64.388,85.288L64.388,74.228L74.551,85.288L79.862,85.288L67.551,71.884L78.825,60.12Z" style="fill:white;fill-rule:nonzero;"/>
        </g>
        <g transform="matrix(4.16667,0,0,4.16667,0,0)">
            <path d="M99.176,76.197C99.176,79.623 96.902,81.837 93.383,81.837C89.863,81.837 87.588,79.623 87.588,76.197L87.588,60.12L83.524,60.12L83.524,76.187C83.524,81.832 87.461,85.625 93.321,85.625C99.218,85.625 103.181,81.829 103.181,76.176L103.181,60.12L99.176,60.12L99.176,76.197Z" style="fill:white;fill-rule:nonzero;"/>
        </g>
        <g transform="matrix(4.16667,0,0,4.16667,0,0)">
            <path d="M127.119,70.732L115.42,70.732L115.42,60.12L111.365,60.12L111.365,85.288L115.42,85.288L115.42,74.46L127.119,74.46L127.119,85.288L131.175,85.288L131.175,60.12L127.119,60.12L127.119,70.732Z" style="fill:white;fill-rule:nonzero;"/>
        </g>
        <g transform="matrix(4.16667,0,0,4.16667,0,0)">
            <path d="M151.654,74.994L144.688,74.994L148.147,65.653L151.654,74.994ZM146.176,60.12L136.674,85.288L140.894,85.288L143.331,78.68L153.017,78.68L155.485,85.288L159.849,85.288L150.229,60.12L146.176,60.12Z" style="fill:white;fill-rule:nonzero;"/>
        </g>
        <g transform="matrix(4.16667,0,0,4.16667,0,0)">
            <path d="M169.309,63.878L173.74,63.878C175.624,63.878 178.786,64.411 178.786,67.981C178.786,71.552 175.624,72.085 173.74,72.085L169.309,72.085L169.309,63.878ZM182.852,67.95C182.852,63.267 179.425,60.12 174.324,60.12L165.285,60.12L165.285,85.288L169.309,85.288L169.309,75.854L173.447,75.854L179.019,85.288L183.782,85.288L177.736,75.306C180.915,74.18 182.852,71.438 182.852,67.95Z" style="fill:white;fill-rule:nonzero;"/>
        </g>
        <g transform="matrix(4.16667,0,0,4.16667,0,0)">
            <path d="M201.477,74.994L194.511,74.994L197.969,65.653L201.477,74.994ZM200.053,60.12L195.998,60.12L186.498,85.288L190.717,85.288L193.155,78.68L202.841,78.68L205.309,85.288L209.673,85.288L200.053,60.12Z" style="fill:white;fill-rule:nonzero;"/>
        </g>
        <g transform="matrix(4.16667,0,0,4.16667,0,0)">
            <g transform="matrix(0.281349,0,0,0.706667,105.825,-233.565)">
                <g transform="matrix(0.853034,0,0,0.339623,19.5465,302.453)">
                    <path d="M136.521,496.242L136.521,460.167L159.217,460.167L159.217,467.208L145.404,467.208L145.404,475.388L158.567,475.388L158.567,482.429L145.404,482.429L145.404,496.242L136.521,496.242Z" style="fill:white;fill-rule:nonzero;"/>
                </g>
                <g transform="matrix(0.853034,0,0,0.339623,19.5465,302.453)">
                    <path d="M199.788,478.204C199.788,480.768 199.372,483.178 198.542,485.435C197.711,487.692 196.51,489.669 194.94,491.367C193.369,493.064 191.446,494.409 189.171,495.402C186.896,496.395 184.296,496.892 181.371,496.892C178.446,496.892 175.837,496.395 173.544,495.402C171.251,494.409 169.319,493.064 167.748,491.367C166.177,489.669 164.985,487.692 164.173,485.435C163.36,483.178 162.954,480.768 162.954,478.204C162.954,475.64 163.36,473.23 164.173,470.973C164.985,468.716 166.177,466.739 167.748,465.042C169.319,463.344 171.251,461.999 173.544,461.006C175.837,460.013 178.446,459.517 181.371,459.517C184.296,459.517 186.896,460.013 189.171,461.006C191.446,461.999 193.369,463.344 194.94,465.042C196.51,466.739 197.711,468.716 198.542,470.973C199.372,473.23 199.788,475.64 199.788,478.204ZM181.371,489.85C182.924,489.85 184.296,489.561 185.488,488.983C186.679,488.406 187.681,487.602 188.494,486.573C189.306,485.544 189.911,484.316 190.308,482.89C190.706,481.463 190.904,479.901 190.904,478.204C190.904,476.507 190.706,474.945 190.308,473.519C189.911,472.092 189.306,470.865 188.494,469.835C187.681,468.806 186.679,468.003 185.488,467.425C184.296,466.847 182.924,466.558 181.371,466.558C179.782,466.558 178.401,466.847 177.227,467.425C176.053,468.003 175.06,468.806 174.248,469.835C173.435,470.865 172.831,472.092 172.433,473.519C172.036,474.945 171.838,476.507 171.838,478.204C171.838,479.901 172.036,481.463 172.433,482.89C172.831,484.316 173.435,485.544 174.248,486.573C175.06,487.602 176.053,488.406 177.227,488.983C178.401,489.561 179.782,489.85 181.371,489.85Z" style="fill:white;fill-rule:nonzero;"/>
                </g>
                <g transform="matrix(0.853034,0,0,0.339623,19.5465,302.453)">
                    <path d="M240.467,478.204C240.467,480.768 240.051,483.178 239.221,485.435C238.39,487.692 237.19,489.669 235.619,491.367C234.048,493.064 232.125,494.409 229.85,495.402C227.575,496.395 224.975,496.892 222.05,496.892C219.125,496.892 216.516,496.395 214.223,495.402C211.93,494.409 209.998,493.064 208.427,491.367C206.856,489.669 205.665,487.692 204.852,485.435C204.04,483.178 203.633,480.768 203.633,478.204C203.633,475.64 204.04,473.23 204.852,470.973C205.665,468.716 206.856,466.739 208.427,465.042C209.998,463.344 211.93,461.999 214.223,461.006C216.516,460.013 219.125,459.517 222.05,459.517C224.975,459.517 227.575,460.013 229.85,461.006C232.125,461.999 234.048,463.344 235.619,465.042C237.19,466.739 238.39,468.716 239.221,470.973C240.051,473.23 240.467,475.64 240.467,478.204ZM222.05,489.85C223.603,489.85 224.975,489.561 226.167,488.983C227.358,488.406 228.36,487.602 229.173,486.573C229.985,485.544 230.59,484.316 230.988,482.89C231.385,481.463 231.583,479.901 231.583,478.204C231.583,476.507 231.385,474.945 230.988,473.519C230.59,472.092 229.985,470.865 229.173,469.835C228.36,468.806 227.358,468.003 226.167,467.425C224.975,466.847 223.603,466.558 222.05,466.558C220.461,466.558 219.08,466.847 217.906,467.425C216.733,468.003 215.74,468.806 214.927,469.835C214.115,470.865 213.51,472.092 213.113,473.519C212.715,474.945 212.517,476.507 212.517,478.204C212.517,479.901 212.715,481.463 213.113,482.89C213.51,484.316 214.115,485.544 214.927,486.573C215.74,487.602 216.733,488.406 217.906,488.983C219.08,489.561 220.461,489.85 222.05,489.85Z" style="fill:white;fill-rule:nonzero;"/>
                </g>
                <g transform="matrix(0.853034,0,0,0.339623,19.5465,302.453)">
                    <path d="M245.829,460.167L256.825,460.167C260.003,460.167 262.919,460.618 265.573,461.521C268.227,462.424 270.493,463.669 272.371,465.258C274.249,466.847 275.711,468.752 276.758,470.973C277.806,473.194 278.329,475.604 278.329,478.204C278.329,480.804 277.806,483.215 276.758,485.435C275.711,487.656 274.249,489.561 272.371,491.15C270.493,492.739 268.227,493.985 265.573,494.888C262.919,495.79 260.003,496.242 256.825,496.242L245.829,496.242L245.829,460.167ZM257.367,489.2C259.172,489.2 260.815,488.947 262.296,488.442C263.776,487.936 265.049,487.214 266.115,486.275C267.18,485.336 268.001,484.19 268.579,482.835C269.157,481.481 269.446,479.938 269.446,478.204C269.446,476.471 269.157,474.927 268.579,473.573C268.001,472.219 267.18,471.072 266.115,470.133C265.049,469.194 263.776,468.472 262.296,467.967C260.815,467.461 259.172,467.208 257.367,467.208L254.713,467.208L254.713,489.2L257.367,489.2Z" style="fill:white;fill-rule:nonzero;"/>
                </g>
                <g transform="matrix(0.853034,0,0,0.339623,19.5465,302.453)">
                    <path d="M307.038,485.462C307.038,487.051 306.722,488.541 306.09,489.931C305.458,491.322 304.546,492.531 303.354,493.56C302.163,494.59 300.718,495.402 299.021,495.998C297.324,496.594 295.392,496.892 293.225,496.892C291.239,496.892 289.253,496.675 287.267,496.242C285.281,495.808 283.439,495.176 281.742,494.346L283.529,487.575C284.793,488.189 286.219,488.722 287.808,489.173C289.397,489.624 291.113,489.85 292.954,489.85C294.471,489.85 295.717,489.57 296.692,489.01C297.667,488.451 298.154,487.539 298.154,486.275C298.154,485.372 297.73,484.551 296.881,483.81C296.033,483.07 294.489,482.285 292.25,481.454C288.711,480.118 286.129,478.592 284.504,476.877C282.879,475.162 282.067,472.968 282.067,470.296C282.067,466.793 283.213,464.121 285.506,462.279C287.799,460.438 290.968,459.517 295.013,459.517C297.071,459.517 299.039,459.742 300.917,460.194C302.794,460.645 304.383,461.232 305.683,461.954L304.167,468.617C302.903,468.003 301.522,467.506 300.023,467.127C298.524,466.748 296.981,466.558 295.392,466.558C294.056,466.558 292.981,466.784 292.169,467.235C291.356,467.687 290.95,468.454 290.95,469.538C290.95,470.043 291.022,470.476 291.167,470.837C291.311,471.199 291.573,471.542 291.952,471.867C292.331,472.192 292.864,472.517 293.55,472.842C294.236,473.167 295.103,473.546 296.15,473.979C297.667,474.593 299.093,475.243 300.429,475.929C301.765,476.615 302.921,477.41 303.896,478.313C304.871,479.215 305.638,480.244 306.198,481.4C306.758,482.556 307.038,483.91 307.038,485.462Z" style="fill:white;fill-rule:nonzero;"/>
                </g>
                <g transform="matrix(0.853034,0,0,0.339623,19.5465,302.453)">
                    <rect x="323.992" y="460.167" width="8.883" height="36.075" style="fill:white;fill-rule:nonzero;"/>
                </g>
                <g transform="matrix(0.853034,0,0,0.339623,19.5465,302.453)">
                    <path d="M363.642,496.242L348.746,474.738L348.746,496.242L340.188,496.242L340.188,460.167L348.746,460.167L363.642,481.671L363.642,460.167L372.2,460.167L372.2,496.242L363.642,496.242Z" style="fill:white;fill-rule:nonzero;"/>
                </g>
                <g transform="matrix(0.853034,0,0,0.339623,19.5465,302.453)">
                    <path d="M396.954,459.517C398.832,459.517 400.719,459.697 402.615,460.058C404.51,460.419 406.144,460.943 407.517,461.629L406.217,468.183C405.133,467.75 403.897,467.38 402.506,467.073C401.116,466.766 399.735,466.613 398.363,466.613C394.679,466.613 391.772,467.569 389.642,469.483C387.511,471.397 386.446,474.304 386.446,478.204C386.446,482.104 387.511,485.011 389.642,486.925C391.772,488.839 394.679,489.796 398.363,489.796C399.735,489.796 401.116,489.642 402.506,489.335C403.897,489.028 405.133,488.658 406.217,488.225L407.517,494.779C406.144,495.465 404.51,495.989 402.615,496.35C400.719,496.711 398.832,496.892 396.954,496.892C393.776,496.892 390.978,496.422 388.558,495.483C386.139,494.544 384.117,493.244 382.492,491.583C380.867,489.922 379.639,487.954 378.808,485.679C377.978,483.404 377.563,480.913 377.563,478.204C377.563,475.496 377.978,473.004 378.808,470.729C379.639,468.454 380.867,466.486 382.492,464.825C384.117,463.164 386.139,461.864 388.558,460.925C390.978,459.986 393.776,459.517 396.954,459.517Z" style="fill:white;fill-rule:nonzero;"/>
                </g>
                <g transform="matrix(0.853034,0,0,0.339623,19.5465,302.453)">
                    <path d="M412.554,491.8C412.554,490.5 412.969,489.363 413.8,488.388C414.631,487.413 415.84,486.925 417.429,486.925C419.018,486.925 420.228,487.413 421.058,488.388C421.889,489.363 422.304,490.5 422.304,491.8C422.304,493.1 421.889,494.238 421.058,495.213C420.228,496.188 419.018,496.675 417.429,496.675C415.84,496.675 414.631,496.188 413.8,495.213C412.969,494.238 412.554,493.1 412.554,491.8Z" style="fill:white;fill-rule:nonzero;"/>
                </g>
            </g>
        </g>
    </g>
</svg>
