<?xml version="1.0" encoding="UTF-8" standalone="no"?>
<!DOCTYPE svg PUBLIC "-//W3C//DTD SVG 1.1//EN" "http://www.w3.org/Graphics/SVG/1.1/DTD/svg11.dtd">
<svg width="100%" height="100%" viewBox="0 0 674 419" version="1.1" xmlns="http://www.w3.org/2000/svg" xmlns:xlink="http://www.w3.org/1999/xlink" xml:space="preserve" xmlns:serif="http://www.serif.com/" style="fill-rule:evenodd;clip-rule:evenodd;stroke-linejoin:round;stroke-miterlimit:1.41421;">
    <g transform="matrix(1,0,0,1,-1417.13,-582.833)">
        <g transform="matrix(0.686928,0,0,0.686928,1417.13,581.007)">
            <g>
                <g transform="matrix(4.16667,0,0,4.16667,0,0)">
                    <path d="M190.852,73.822C190.852,114.237 158.091,147 117.676,147C77.257,147 44.492,114.237 44.492,73.822C44.492,33.403 77.257,0.638 117.676,0.638C158.091,0.638 190.852,33.403 190.852,73.822Z" style="fill:rgb(255,229,22);fill-rule:nonzero;"/>
                </g>
                <g transform="matrix(4.16667,0,0,4.16667,0,0)">
                    <path d="M117.676,15.884C85.729,15.884 59.738,41.875 59.738,73.821C59.738,105.765 85.729,131.754 117.676,131.754C149.619,131.754 175.606,105.765 175.606,73.821C175.606,41.875 149.619,15.884 117.676,15.884ZM117.676,136.021C83.376,136.021 55.471,108.118 55.471,73.821C55.471,39.522 83.376,11.617 117.676,11.617C151.971,11.617 179.873,39.522 179.873,73.821C179.873,108.118 151.971,136.021 117.676,136.021Z" style="fill:white;fill-rule:nonzero;"/>
                </g>
                <g transform="matrix(4.16667,0,0,4.16667,0,0)">
                    <rect x="0" y="45.036" width="235.345" height="56.684" style="fill:rgb(238,49,35);fill-rule:nonzero;"/>
                </g>
                <g transform="matrix(4.16667,0,0,4.16667,0,0)">
                    <path d="M40.795,81.847C35.776,81.847 32.133,78.001 32.133,72.703C32.133,67.491 35.861,63.561 40.805,63.561C45.732,63.561 49.447,67.487 49.447,72.694C49.447,77.998 45.808,81.847 40.795,81.847ZM40.846,59.781C33.543,59.781 28.037,65.332 28.037,72.694C28.037,80.066 33.521,85.625 40.795,85.625C48.068,85.625 53.553,80.053 53.553,72.663C53.553,65.319 48.09,59.781 40.846,59.781Z" style="fill:white;fill-rule:nonzero;"/>
                </g>
                <g transform="matrix(4.16667,0,0,4.16667,0,0)">
                    <path d="M78.825,60.12L73.607,60.12L64.388,69.738L64.388,60.12L60.333,60.12L60.333,85.288L64.388,85.288L64.388,74.228L74.551,85.288L79.862,85.288L67.551,71.884L78.825,60.12Z" style="fill:white;fill-rule:nonzero;"/>
                </g>
                <g transform="matrix(4.16667,0,0,4.16667,0,0)">
                    <path d="M99.176,76.197C99.176,79.623 96.902,81.837 93.383,81.837C89.863,81.837 87.588,79.623 87.588,76.197L87.588,60.12L83.524,60.12L83.524,76.187C83.524,81.832 87.461,85.625 93.321,85.625C99.218,85.625 103.181,81.828 103.181,76.176L103.181,60.12L99.176,60.12L99.176,76.197Z" style="fill:white;fill-rule:nonzero;"/>
                </g>
                <g transform="matrix(4.16667,0,0,4.16667,0,0)">
                    <path d="M127.119,70.732L115.42,70.732L115.42,60.12L111.365,60.12L111.365,85.288L115.42,85.288L115.42,74.46L127.119,74.46L127.119,85.288L131.175,85.288L131.175,60.12L127.119,60.12L127.119,70.732Z" style="fill:white;fill-rule:nonzero;"/>
                </g>
                <g transform="matrix(4.16667,0,0,4.16667,0,0)">
                    <path d="M151.654,74.994L144.688,74.994L148.147,65.653L151.654,74.994ZM146.176,60.12L136.674,85.288L140.894,85.288L143.331,78.68L153.017,78.68L155.485,85.288L159.849,85.288L150.229,60.12L146.176,60.12Z" style="fill:white;fill-rule:nonzero;"/>
                </g>
                <g transform="matrix(4.16667,0,0,4.16667,0,0)">
                    <path d="M169.309,63.878L173.74,63.878C175.624,63.878 178.786,64.411 178.786,67.981C178.786,71.552 175.624,72.085 173.74,72.085L169.309,72.085L169.309,63.878ZM182.852,67.95C182.852,63.267 179.425,60.12 174.324,60.12L165.285,60.12L165.285,85.288L169.309,85.288L169.309,75.854L173.447,75.854L179.019,85.288L183.782,85.288L177.736,75.306C180.915,74.18 182.852,71.438 182.852,67.95Z" style="fill:white;fill-rule:nonzero;"/>
                </g>
                <g transform="matrix(4.16667,0,0,4.16667,0,0)">
                    <path d="M201.477,74.994L194.511,74.994L197.969,65.653L201.477,74.994ZM200.053,60.12L195.998,60.12L186.498,85.288L190.717,85.288L193.155,78.68L202.841,78.68L205.309,85.288L209.673,85.288L200.053,60.12Z" style="fill:white;fill-rule:nonzero;"/>
                </g>
                <g transform="matrix(4.16667,0,0,4.16667,0,0)">
                    <path d="M190.852,73.822C190.852,114.237 158.091,147 117.676,147C77.257,147 44.492,114.237 44.492,73.822C44.492,33.403 77.257,0.638 117.676,0.638C158.091,0.638 190.852,33.403 190.852,73.822Z" style="fill:rgb(255,229,22);fill-rule:nonzero;"/>
                </g>
                <g transform="matrix(4.16667,0,0,4.16667,0,0)">
                    <path d="M117.676,15.884C85.729,15.884 59.738,41.875 59.738,73.821C59.738,105.765 85.729,131.754 117.676,131.754C149.619,131.754 175.606,105.765 175.606,73.821C175.606,41.875 149.619,15.884 117.676,15.884ZM117.676,136.021C83.376,136.021 55.471,108.118 55.471,73.821C55.471,39.522 83.376,11.617 117.676,11.617C151.971,11.617 179.873,39.522 179.873,73.821C179.873,108.118 151.971,136.021 117.676,136.021Z" style="fill:white;fill-rule:nonzero;"/>
                </g>
                <g transform="matrix(4.16667,0,0,4.16667,0,0)">
                    <rect x="0" y="45.036" width="235.345" height="56.684" style="fill:rgb(238,49,35);fill-rule:nonzero;"/>
                </g>
                <g transform="matrix(4.16667,0,0,4.16667,0,0)">
                    <path d="M40.795,81.847C35.776,81.847 32.133,78.001 32.133,72.703C32.133,67.491 35.861,63.561 40.805,63.561C45.732,63.561 49.447,67.487 49.447,72.694C49.447,77.998 45.808,81.847 40.795,81.847ZM40.846,59.781C33.543,59.781 28.037,65.332 28.037,72.694C28.037,80.066 33.521,85.625 40.795,85.625C48.068,85.625 53.553,80.053 53.553,72.663C53.553,65.319 48.09,59.781 40.846,59.781Z" style="fill:white;fill-rule:nonzero;"/>
                </g>
                <g transform="matrix(4.16667,0,0,4.16667,0,0)">
                    <path d="M78.825,60.12L73.607,60.12L64.388,69.738L64.388,60.12L60.333,60.12L60.333,85.288L64.388,85.288L64.388,74.228L74.551,85.288L79.862,85.288L67.551,71.884L78.825,60.12Z" style="fill:white;fill-rule:nonzero;"/>
                </g>
                <g transform="matrix(4.16667,0,0,4.16667,0,0)">
                    <path d="M99.176,76.197C99.176,79.623 96.902,81.837 93.383,81.837C89.863,81.837 87.588,79.623 87.588,76.197L87.588,60.12L83.524,60.12L83.524,76.187C83.524,81.832 87.461,85.625 93.321,85.625C99.218,85.625 103.181,81.828 103.181,76.176L103.181,60.12L99.176,60.12L99.176,76.197Z" style="fill:white;fill-rule:nonzero;"/>
                </g>
                <g transform="matrix(4.16667,0,0,4.16667,0,0)">
                    <path d="M127.119,70.732L115.42,70.732L115.42,60.12L111.365,60.12L111.365,85.288L115.42,85.288L115.42,74.46L127.119,74.46L127.119,85.288L131.175,85.288L131.175,60.12L127.119,60.12L127.119,70.732Z" style="fill:white;fill-rule:nonzero;"/>
                </g>
                <g transform="matrix(4.16667,0,0,4.16667,0,0)">
                    <path d="M151.654,74.994L144.688,74.994L148.147,65.653L151.654,74.994ZM146.176,60.12L136.674,85.288L140.894,85.288L143.331,78.68L153.017,78.68L155.485,85.288L159.849,85.288L150.229,60.12L146.176,60.12Z" style="fill:white;fill-rule:nonzero;"/>
                </g>
                <g transform="matrix(4.16667,0,0,4.16667,0,0)">
                    <path d="M169.309,63.878L173.74,63.878C175.624,63.878 178.786,64.411 178.786,67.981C178.786,71.552 175.624,72.085 173.74,72.085L169.309,72.085L169.309,63.878ZM182.852,67.95C182.852,63.267 179.425,60.12 174.324,60.12L165.285,60.12L165.285,85.288L169.309,85.288L169.309,75.854L173.447,75.854L179.019,85.288L183.782,85.288L177.736,75.306C180.915,74.18 182.852,71.438 182.852,67.95Z" style="fill:white;fill-rule:nonzero;"/>
                </g>
                <g transform="matrix(4.16667,0,0,4.16667,0,0)">
                    <path d="M201.477,74.994L194.511,74.994L197.969,65.653L201.477,74.994ZM200.053,60.12L195.998,60.12L186.498,85.288L190.717,85.288L193.155,78.68L202.841,78.68L205.309,85.288L209.673,85.288L200.053,60.12Z" style="fill:white;fill-rule:nonzero;"/>
                </g>
                <g transform="matrix(4.16667,0,0,4.16667,0,0)">
                    <path d="M190.852,73.822C190.852,114.237 158.091,147 117.676,147C77.257,147 44.492,114.237 44.492,73.822C44.492,33.403 77.257,0.638 117.676,0.638C158.091,0.638 190.852,33.403 190.852,73.822Z" style="fill:rgb(255,229,22);fill-rule:nonzero;"/>
                </g>
                <g transform="matrix(4.16667,0,0,4.16667,0,0)">
                    <path d="M117.676,15.884C85.729,15.884 59.738,41.875 59.738,73.821C59.738,105.765 85.729,131.754 117.676,131.754C149.619,131.754 175.606,105.765 175.606,73.821C175.606,41.875 149.619,15.884 117.676,15.884ZM117.676,136.021C83.376,136.021 55.471,108.118 55.471,73.821C55.471,39.522 83.376,11.617 117.676,11.617C151.971,11.617 179.873,39.522 179.873,73.821C179.873,108.118 151.971,136.021 117.676,136.021Z" style="fill:white;fill-rule:nonzero;"/>
                </g>
                <g transform="matrix(4.16667,0,0,4.16667,0,0)">
                    <rect x="0" y="45.036" width="235.345" height="56.684" style="fill:rgb(238,49,35);fill-rule:nonzero;"/>
                </g>
                <g transform="matrix(4.16667,0,0,4.16667,0,0)">
                    <path d="M40.795,81.847C35.776,81.847 32.133,78.001 32.133,72.703C32.133,67.491 35.861,63.561 40.805,63.561C45.732,63.561 49.447,67.487 49.447,72.694C49.447,77.998 45.808,81.847 40.795,81.847ZM40.846,59.781C33.543,59.781 28.037,65.332 28.037,72.694C28.037,80.066 33.521,85.625 40.795,85.625C48.068,85.625 53.553,80.053 53.553,72.663C53.553,65.319 48.09,59.781 40.846,59.781Z" style="fill:white;fill-rule:nonzero;"/>
                </g>
                <g transform="matrix(4.16667,0,0,4.16667,0,0)">
                    <path d="M78.825,60.12L73.607,60.12L64.388,69.738L64.388,60.12L60.333,60.12L60.333,85.288L64.388,85.288L64.388,74.228L74.551,85.288L79.862,85.288L67.551,71.884L78.825,60.12Z" style="fill:white;fill-rule:nonzero;"/>
                </g>
                <g transform="matrix(4.16667,0,0,4.16667,0,0)">
                    <path d="M99.176,76.197C99.176,79.623 96.902,81.837 93.383,81.837C89.863,81.837 87.588,79.623 87.588,76.197L87.588,60.12L83.524,60.12L83.524,76.187C83.524,81.832 87.461,85.625 93.321,85.625C99.218,85.625 103.181,81.828 103.181,76.176L103.181,60.12L99.176,60.12L99.176,76.197Z" style="fill:white;fill-rule:nonzero;"/>
                </g>
                <g transform="matrix(4.16667,0,0,4.16667,0,0)">
                    <path d="M127.119,70.732L115.42,70.732L115.42,60.12L111.365,60.12L111.365,85.288L115.42,85.288L115.42,74.46L127.119,74.46L127.119,85.288L131.175,85.288L131.175,60.12L127.119,60.12L127.119,70.732Z" style="fill:white;fill-rule:nonzero;"/>
                </g>
                <g transform="matrix(4.16667,0,0,4.16667,0,0)">
                    <path d="M151.654,74.994L144.688,74.994L148.147,65.653L151.654,74.994ZM146.176,60.12L136.674,85.288L140.894,85.288L143.331,78.68L153.017,78.68L155.485,85.288L159.849,85.288L150.229,60.12L146.176,60.12Z" style="fill:white;fill-rule:nonzero;"/>
                </g>
                <g transform="matrix(4.16667,0,0,4.16667,0,0)">
                    <path d="M169.309,63.878L173.74,63.878C175.624,63.878 178.786,64.411 178.786,67.981C178.786,71.552 175.624,72.085 173.74,72.085L169.309,72.085L169.309,63.878ZM182.852,67.95C182.852,63.267 179.425,60.12 174.324,60.12L165.285,60.12L165.285,85.288L169.309,85.288L169.309,75.854L173.447,75.854L179.019,85.288L183.782,85.288L177.736,75.306C180.915,74.18 182.852,71.438 182.852,67.95Z" style="fill:white;fill-rule:nonzero;"/>
                </g>
                <g transform="matrix(4.16667,0,0,4.16667,0,0)">
                    <path d="M201.477,74.994L194.511,74.994L197.969,65.653L201.477,74.994ZM200.053,60.12L195.998,60.12L186.498,85.288L190.717,85.288L193.155,78.68L202.841,78.68L205.309,85.288L209.673,85.288L200.053,60.12Z" style="fill:white;fill-rule:nonzero;"/>
                </g>
            </g>
        </g>
    </g>
</svg>
